<?xml version="1.0" encoding="UTF-8"?>
<svg width="195px" height="40px" viewBox="0 0 195 40" version="1.1" xmlns="http://www.w3.org/2000/svg" xmlns:xlink="http://www.w3.org/1999/xlink">
    <title>logo</title>
    <defs>
        <filter color-interpolation-filters="auto" id="filter-1">
            <feColorMatrix in="SourceGraphic" type="matrix" values="0 0 0 0 1.000000 0 0 0 0 1.000000 0 0 0 0 1.000000 0 0 0 1.000000 0"></feColorMatrix>
        </filter>
    </defs>
    <g id="Page-2" stroke="none" stroke-width="1" fill="none" fill-rule="evenodd">
        <g id="logo" transform="translate(-920.000000, -349.000000)" filter="url(#filter-1)">
            <g transform="translate(919.999784, 349.510526)">
                <path d="M16.8748672,14.8866691 L10.5241398,11.2206658 C9.66295087,10.7235347 8.60269315,10.7235347 7.74204517,11.2206658 L1.39131779,14.8866691 C0.530669809,15.3838002 -8.52651283e-14,16.3017886 -8.52651283e-14,17.2960507 L-8.52651283e-14,22.6519751 L-8.52651283e-14,24.6296803 L-8.52651283e-14,34.8000402 C-8.52651283e-14,35.7331752 0.756785997,36.4899612 1.68992098,36.4899612 C2.62251502,36.4899612 3.37930102,35.7331752 3.37930102,34.8000402 L3.37930102,28.1864122 L3.37930102,22.6784815 L3.37930102,22.6519751 L3.37930102,20.962595 L3.37930102,19.2472495 C3.37930102,18.2529874 3.90942988,17.334458 4.77007786,16.837327 L7.74204517,15.1219814 C8.60269315,14.6253913 9.66295087,14.6253913 10.5241398,15.1219814 L13.4955662,16.837327 C14.3567551,17.334458 14.886343,18.2529874 14.886343,19.2472495 L14.886343,22.6784815 C14.886343,23.6722027 14.3567551,24.5901911 13.4955662,25.0873221 L10.5241398,26.8032086 C9.66295087,27.3003397 8.60269315,27.3003397 7.74204517,26.8032086 L5.38188984,25.441102 L5.38188984,29.3429586 L7.74204517,30.7050652 C8.60269315,31.2021963 9.66295087,31.2021963 10.5241398,30.7050652 L16.8748672,27.0385209 C17.7355152,26.5419308 18.265644,25.6234014 18.265644,24.6296803 L18.265644,17.2960507 C18.265644,16.3017886 17.7355152,15.3838002 16.8748672,14.8866691" id="Fill-6" fill="#702EEF"></path>
                <path d="M28.7082211,29.252 C30.2202211,29.252 31.5875544,28.9206667 32.8102211,28.258 C34.0328877,27.5953333 35.0035544,26.6573333 35.7222211,25.444 C36.4408877,24.2306667 36.8002211,22.8306667 36.8002211,21.244 C36.8002211,19.6573333 36.4502211,18.2573333 35.7502211,17.044 C35.0502211,15.8306667 34.0935544,14.8926667 32.8802211,14.23 C31.6668877,13.5673333 30.3135544,13.236 28.8202211,13.236 C27.3268877,13.236 25.9735544,13.5673333 24.7602211,14.23 C23.5468877,14.8926667 22.5902211,15.8306667 21.8902211,17.044 C21.1902211,18.2573333 20.8402211,19.6573333 20.8402211,21.244 C20.8402211,22.8306667 21.1808877,24.2306667 21.8622211,25.444 C22.5435544,26.6573333 23.4815544,27.5953333 24.6762211,28.258 C25.8708877,28.9206667 27.2148877,29.252 28.7082211,29.252 Z M28.7082211,25.836 C27.5882211,25.836 26.6595544,25.4393333 25.9222211,24.646 C25.1848877,23.8526667 24.8162211,22.7186667 24.8162211,21.244 C24.8162211,19.7693333 25.1942211,18.6353333 25.9502211,17.842 C26.7062211,17.0486667 27.6442211,16.652 28.7642211,16.652 C29.8842211,16.652 30.8315544,17.0486667 31.6062211,17.842 C32.3808877,18.6353333 32.7682211,19.7693333 32.7682211,21.244 C32.7682211,22.2333333 32.5815544,23.0733333 32.2082211,23.764 C31.8348877,24.4546667 31.3355544,24.9726667 30.7102211,25.318 C30.0848877,25.6633333 29.4175544,25.836 28.7082211,25.836 Z M42.5758181,29 L42.5758181,8.28 L38.6558181,8.28 L38.6558181,29 L42.5758181,29 Z M50.6474151,36.336 L60.2514151,13.488 L56.0794151,13.488 L52.0194151,24.324 L48.0154151,13.488 L43.6194151,13.488 L49.8354151,28.608 L46.4754151,36.336 L50.6474151,36.336 Z M68.7990121,36.644 C70.4416787,36.644 71.8416787,36.3126667 72.9990121,35.65 C74.1563454,34.9873333 75.0243454,34.0913333 75.6030121,32.962 C76.1816787,31.8326667 76.4710121,30.5493333 76.4710121,29.112 L76.4710121,29.112 L76.4710121,13.488 L72.5230121,13.488 L72.5230121,15.7 C72.0190121,14.972 71.3283454,14.3793333 70.4510121,13.922 C69.5736787,13.4646667 68.5563454,13.236 67.3990121,13.236 C66.0736787,13.236 64.8743454,13.5626667 63.8010121,14.216 C62.7276787,14.8693333 61.8783454,15.8026667 61.2530121,17.016 C60.6276787,18.2293333 60.3150121,19.62 60.3150121,21.188 C60.3150121,22.7746667 60.6276787,24.1793333 61.2530121,25.402 C61.8783454,26.6246667 62.7323454,27.572 63.8150121,28.244 C64.8976787,28.916 66.0923454,29.252 67.3990121,29.252 C68.5376787,29.252 69.5503454,29.0093333 70.4370121,28.524 C71.3236787,28.0386667 72.0190121,27.432 72.5230121,26.704 L72.5230121,26.704 L72.5230121,29.112 C72.5230121,30.4933333 72.1683454,31.5246667 71.4590121,32.206 C70.7496787,32.8873333 69.8256787,33.228 68.6870121,33.228 C67.7163454,33.228 66.8903454,33.018 66.2090121,32.598 C65.5276787,32.178 65.0843454,31.6133333 64.8790121,30.904 L64.8790121,30.904 L60.9870121,30.904 C61.1736787,32.6773333 61.9716787,34.0773333 63.3810121,35.104 C64.7903454,36.1306667 66.5963454,36.644 68.7990121,36.644 Z M68.4070121,25.808 C67.6976787,25.808 67.0303454,25.6213333 66.4050121,25.248 C65.7796787,24.8746667 65.2756787,24.338 64.8930121,23.638 C64.5103454,22.938 64.3190121,22.1213333 64.3190121,21.188 C64.3190121,20.2546667 64.5103454,19.4473333 64.8930121,18.766 C65.2756787,18.0846667 65.7750121,17.5666667 66.3910121,17.212 C67.0070121,16.8573333 67.6790121,16.68 68.4070121,16.68 C69.1350121,16.68 69.8163454,16.862 70.4510121,17.226 C71.0856787,17.59 71.5896787,18.1126667 71.9630121,18.794 C72.3363454,19.4753333 72.5230121,20.292 72.5230121,21.244 C72.5230121,22.196 72.3363454,23.0126667 71.9630121,23.694 C71.5896787,24.3753333 71.0856787,24.898 70.4510121,25.262 C69.8163454,25.626 69.1350121,25.808 68.4070121,25.808 Z M86.1666091,29.252 C87.6786091,29.252 89.0459424,28.9206667 90.2686091,28.258 C91.4912757,27.5953333 92.4619424,26.6573333 93.1806091,25.444 C93.8992757,24.2306667 94.2586091,22.8306667 94.2586091,21.244 C94.2586091,19.6573333 93.9086091,18.2573333 93.2086091,17.044 C92.5086091,15.8306667 91.5519424,14.8926667 90.3386091,14.23 C89.1252757,13.5673333 87.7719424,13.236 86.2786091,13.236 C84.7852757,13.236 83.4319424,13.5673333 82.2186091,14.23 C81.0052757,14.8926667 80.0486091,15.8306667 79.3486091,17.044 C78.6486091,18.2573333 78.2986091,19.6573333 78.2986091,21.244 C78.2986091,22.8306667 78.6392757,24.2306667 79.3206091,25.444 C80.0019424,26.6573333 80.9399424,27.5953333 82.1346091,28.258 C83.3292757,28.9206667 84.6732757,29.252 86.1666091,29.252 Z M86.1666091,25.836 C85.0466091,25.836 84.1179424,25.4393333 83.3806091,24.646 C82.6432757,23.8526667 82.2746091,22.7186667 82.2746091,21.244 C82.2746091,19.7693333 82.6526091,18.6353333 83.4086091,17.842 C84.1646091,17.0486667 85.1026091,16.652 86.2226091,16.652 C87.3426091,16.652 88.2899424,17.0486667 89.0646091,17.842 C89.8392757,18.6353333 90.2266091,19.7693333 90.2266091,21.244 C90.2266091,22.2333333 90.0399424,23.0733333 89.6666091,23.764 C89.2932757,24.4546667 88.7939424,24.9726667 88.1686091,25.318 C87.5432757,25.6633333 86.8759424,25.836 86.1666091,25.836 Z M100.034206,29 L100.034206,20.432 C100.034206,19.2 100.346873,18.2526667 100.972206,17.59 C101.597539,16.9273333 102.451539,16.596 103.534206,16.596 C104.598206,16.596 105.438206,16.9273333 106.054206,17.59 C106.670206,18.2526667 106.978206,19.2 106.978206,20.432 L106.978206,20.432 L106.978206,29 L110.898206,29 L110.898206,19.9 C110.898206,17.8093333 110.328873,16.1806667 109.190206,15.014 C108.051539,13.8473333 106.558206,13.264 104.710206,13.264 C103.739539,13.264 102.848206,13.4553333 102.036206,13.838 C101.224206,14.2206667 100.556873,14.748 100.034206,15.42 L100.034206,15.42 L100.034206,13.488 L96.1142061,13.488 L96.1142061,29 L100.034206,29 Z" id="olygon" fill="#702EEF" fill-rule="nonzero"></path>
                <path d="M117.740221,36.392 L117.740221,26.788 C118.281554,27.4973333 118.986221,28.0853333 119.854221,28.552 C120.722221,29.0186667 121.725554,29.252 122.864221,29.252 C124.189554,29.252 125.388888,28.916 126.462221,28.244 C127.535554,27.572 128.384888,26.6246667 129.010221,25.402 C129.635554,24.1793333 129.948221,22.7746667 129.948221,21.188 C129.948221,19.6013333 129.635554,18.206 129.010221,17.002 C128.384888,15.798 127.535554,14.8693333 126.462221,14.216 C125.388888,13.5626667 124.189554,13.236 122.864221,13.236 C121.725554,13.236 120.712888,13.474 119.826221,13.95 C118.939554,14.426 118.244221,15.0186667 117.740221,15.728 L117.740221,15.728 L117.740221,13.488 L113.820221,13.488 L113.820221,36.392 L117.740221,36.392 Z M121.828221,25.808 C121.118888,25.808 120.451554,25.626 119.826221,25.262 C119.200888,24.898 118.696888,24.3706667 118.314221,23.68 C117.931554,22.9893333 117.740221,22.1773333 117.740221,21.244 C117.740221,20.3106667 117.931554,19.4986667 118.314221,18.808 C118.696888,18.1173333 119.200888,17.59 119.826221,17.226 C120.451554,16.862 121.118888,16.68 121.828221,16.68 C122.556221,16.68 123.232888,16.8573333 123.858221,17.212 C124.483554,17.5666667 124.987554,18.0846667 125.370221,18.766 C125.752888,19.4473333 125.944221,20.2546667 125.944221,21.188 C125.944221,22.14 125.752888,22.9613333 125.370221,23.652 C124.987554,24.3426667 124.483554,24.8746667 123.858221,25.248 C123.232888,25.6213333 122.556221,25.808 121.828221,25.808 Z M137.851818,29.196 C138.803818,29.196 139.685818,29.0046667 140.497818,28.622 C141.309818,28.2393333 141.967818,27.712 142.471818,27.04 L142.471818,27.04 L142.471818,29 L146.419818,29 L146.419818,13.488 L142.471818,13.488 L142.471818,22.028 C142.471818,23.26 142.163818,24.2073333 141.547818,24.87 C140.931818,25.5326667 140.082485,25.864 138.999818,25.864 C137.935818,25.864 137.095818,25.5326667 136.479818,24.87 C135.863818,24.2073333 135.555818,23.26 135.555818,22.028 L135.555818,22.028 L135.555818,13.488 L131.635818,13.488 L131.635818,22.588 C131.635818,23.9693333 131.901818,25.1593333 132.433818,26.158 C132.965818,27.1566667 133.698485,27.9126667 134.631818,28.426 C135.565151,28.9393333 136.638485,29.196 137.851818,29.196 Z M153.175415,29 L153.175415,20.432 C153.175415,19.2 153.488082,18.2526667 154.113415,17.59 C154.738748,16.9273333 155.592748,16.596 156.675415,16.596 C157.739415,16.596 158.579415,16.9273333 159.195415,17.59 C159.811415,18.2526667 160.119415,19.2 160.119415,20.432 L160.119415,20.432 L160.119415,29 L164.039415,29 L164.039415,19.9 C164.039415,17.8093333 163.470082,16.1806667 162.331415,15.014 C161.192748,13.8473333 159.699415,13.264 157.851415,13.264 C156.880748,13.264 155.989415,13.4553333 155.177415,13.838 C154.365415,14.2206667 153.698082,14.748 153.175415,15.42 L153.175415,15.42 L153.175415,13.488 L149.255415,13.488 L149.255415,29 L153.175415,29 Z M170.655012,29 L170.655012,22.392 L175.919012,29 L181.015012,29 L174.127012,21.272 L180.959012,13.488 L175.863012,13.488 L170.655012,20.068 L170.655012,8.28 L166.735012,8.28 L166.735012,29 L170.655012,29 Z M187.994609,29.252 C189.226609,29.252 190.304609,29.0513333 191.228609,28.65 C192.152609,28.2486667 192.861942,27.6933333 193.356609,26.984 C193.851276,26.2746667 194.098609,25.472 194.098609,24.576 C194.079942,23.5493333 193.804609,22.7233333 193.272609,22.098 C192.740609,21.4726667 192.110609,21.0106667 191.382609,20.712 C190.654609,20.4133333 189.730609,20.124 188.610609,19.844 C187.509276,19.564 186.697276,19.2886667 186.174609,19.018 C185.651942,18.7473333 185.390609,18.3506667 185.390609,17.828 C185.390609,17.3613333 185.581942,16.9973333 185.964609,16.736 C186.347276,16.4746667 186.893276,16.344 187.602609,16.344 C188.367942,16.344 188.979276,16.526 189.436609,16.89 C189.893942,17.254 190.150609,17.744 190.206609,18.36 L190.206609,18.36 L193.958609,18.36 C193.846609,16.792 193.239942,15.546 192.138609,14.622 C191.037276,13.698 189.562609,13.236 187.714609,13.236 C186.463942,13.236 185.376609,13.4413333 184.452609,13.852 C183.528609,14.2626667 182.819276,14.8226667 182.324609,15.532 C181.829942,16.2413333 181.582609,17.0253333 181.582609,17.884 C181.582609,18.9293333 181.848609,19.76 182.380609,20.376 C182.912609,20.992 183.547276,21.4493333 184.284609,21.748 C185.021942,22.0466667 185.969276,22.336 187.126609,22.616 C188.246609,22.9146667 189.063276,23.19 189.576609,23.442 C190.089942,23.694 190.346609,24.072 190.346609,24.576 C190.346609,25.0426667 190.136609,25.4253333 189.716609,25.724 C189.296609,26.0226667 188.713276,26.172 187.966609,26.172 C187.201276,26.172 186.561942,25.976 186.048609,25.584 C185.535276,25.192 185.241276,24.6973333 185.166609,24.1 L185.166609,24.1 L181.218609,24.1 C181.274609,25.052 181.596609,25.92 182.184609,26.704 C182.772609,27.488 183.570609,28.1086667 184.578609,28.566 C185.586609,29.0233333 186.725276,29.252 187.994609,29.252 Z" id="punks" fill="#212121" fill-rule="nonzero"></path>
            </g>
        </g>
    </g>
</svg>