<svg width="184" height="38" viewBox="0 0 184 38" fill="none" xmlns="http://www.w3.org/2000/svg">
<path d="M12.09 8.3C14.0533 8.3 15.7583 8.63067 17.205 9.292C18.6517 9.93267 19.7677 10.8627 20.553 12.082C21.3383 13.2807 21.731 14.6963 21.731 16.329C21.731 17.9617 21.3383 19.3773 20.553 20.576C19.7677 21.7747 18.6517 22.7047 17.205 23.366C15.7583 24.0067 14.0533 24.327 12.09 24.327H8.308V30H2.17V8.3H12.09ZM11.718 19.491C12.9787 19.491 13.9293 19.2223 14.57 18.685C15.2107 18.127 15.531 17.3417 15.531 16.329C15.531 15.3163 15.2107 14.531 14.57 13.973C13.9293 13.415 12.9787 13.136 11.718 13.136H8.308V19.491H11.718ZM32.8464 30.279C31.0484 30.279 29.4261 29.907 27.9794 29.163C26.5328 28.419 25.3961 27.3857 24.5694 26.063C23.7634 24.7403 23.3604 23.242 23.3604 21.568C23.3604 19.9147 23.7634 18.4267 24.5694 17.104C25.3961 15.7813 26.5224 14.7583 27.9484 14.035C29.3951 13.291 31.0278 12.919 32.8464 12.919C34.6651 12.919 36.2978 13.291 37.7444 14.035C39.1911 14.7583 40.3174 15.7813 41.1234 17.104C41.9294 18.406 42.3324 19.894 42.3324 21.568C42.3324 23.242 41.9294 24.7403 41.1234 26.063C40.3174 27.3857 39.1911 28.419 37.7444 29.163C36.2978 29.907 34.6651 30.279 32.8464 30.279ZM32.8464 25.598C33.8798 25.598 34.7271 25.2467 35.3884 24.544C36.0498 23.8207 36.3804 22.8287 36.3804 21.568C36.3804 20.328 36.0498 19.3567 35.3884 18.654C34.7271 17.9513 33.8798 17.6 32.8464 17.6C31.8131 17.6 30.9658 17.9513 30.3044 18.654C29.6431 19.3567 29.3124 20.328 29.3124 21.568C29.3124 22.8287 29.6431 23.8207 30.3044 24.544C30.9658 25.2467 31.8131 25.598 32.8464 25.598ZM45.0609 6.998H50.9509V30H45.0609V6.998ZM62.4047 24.11L60.6687 25.877V30H54.7787V6.998H60.6687V19.057L66.6827 13.198H73.6577L66.6827 20.39L74.2467 30H67.1167L62.4047 24.11ZM82.8889 12.919C85.6789 12.919 87.8076 13.5597 89.2749 14.841C90.7422 16.1017 91.4759 18.0443 91.4759 20.669V30H85.9889V27.83C85.1416 29.4627 83.4882 30.279 81.0289 30.279C79.7269 30.279 78.6006 30.0517 77.6499 29.597C76.6992 29.1423 75.9759 28.5327 75.4799 27.768C75.0046 26.9827 74.7669 26.094 74.7669 25.102C74.7669 23.5107 75.3766 22.281 76.5959 21.413C77.8152 20.5243 79.6959 20.08 82.2379 20.08H85.5859C85.4826 18.3027 84.2942 17.414 82.0209 17.414C81.2149 17.414 80.3986 17.5483 79.5719 17.817C78.7452 18.065 78.0426 18.4163 77.4639 18.871L75.4799 14.872C76.4099 14.252 77.5362 13.7767 78.8589 13.446C80.2022 13.0947 81.5456 12.919 82.8889 12.919ZM82.6719 26.559C83.3539 26.559 83.9532 26.3937 84.4699 26.063C84.9866 25.7323 85.3586 25.2467 85.5859 24.606V23.149H83.0439C81.3286 23.149 80.4709 23.7173 80.4709 24.854C80.4709 25.3707 80.6672 25.784 81.0599 26.094C81.4526 26.404 81.9899 26.559 82.6719 26.559ZM105.393 8.3C107.356 8.3 109.061 8.63067 110.508 9.292C111.954 9.93267 113.07 10.8627 113.856 12.082C114.641 13.2807 115.034 14.6963 115.034 16.329C115.034 17.9617 114.641 19.3773 113.856 20.576C113.07 21.7747 111.954 22.7047 110.508 23.366C109.061 24.0067 107.356 24.327 105.393 24.327H101.611V30H95.4727V8.3H105.393ZM105.021 19.491C106.281 19.491 107.232 19.2223 107.873 18.685C108.513 18.127 108.834 17.3417 108.834 16.329C108.834 15.3163 108.513 14.531 107.873 13.973C107.232 13.415 106.281 13.136 105.021 13.136H101.611V19.491H105.021ZM118.05 6.998H123.94V30H118.05V6.998ZM134.929 12.919C137.719 12.919 139.848 13.5597 141.315 14.841C142.782 16.1017 143.516 18.0443 143.516 20.669V30H138.029V27.83C137.182 29.4627 135.528 30.279 133.069 30.279C131.767 30.279 130.641 30.0517 129.69 29.597C128.739 29.1423 128.016 28.5327 127.52 27.768C127.045 26.9827 126.807 26.094 126.807 25.102C126.807 23.5107 127.417 22.281 128.636 21.413C129.855 20.5243 131.736 20.08 134.278 20.08H137.626C137.523 18.3027 136.334 17.414 134.061 17.414C133.255 17.414 132.439 17.5483 131.612 17.817C130.785 18.065 130.083 18.4163 129.504 18.871L127.52 14.872C128.45 14.252 129.576 13.7767 130.899 13.446C132.242 13.0947 133.586 12.919 134.929 12.919ZM134.712 26.559C135.394 26.559 135.993 26.3937 136.51 26.063C137.027 25.7323 137.399 25.2467 137.626 24.606V23.149H135.084C133.369 23.149 132.511 23.7173 132.511 24.854C132.511 25.3707 132.707 25.784 133.1 26.094C133.493 26.404 134.03 26.559 134.712 26.559ZM156.063 30.279C154.203 30.279 152.539 29.907 151.072 29.163C149.605 28.419 148.458 27.3857 147.631 26.063C146.825 24.7403 146.422 23.242 146.422 21.568C146.422 19.894 146.825 18.406 147.631 17.104C148.458 15.7813 149.605 14.7583 151.072 14.035C152.539 13.291 154.203 12.919 156.063 12.919C157.964 12.919 159.607 13.3323 160.992 14.159C162.377 14.965 163.358 16.0913 163.937 17.538L159.38 19.863C158.615 18.3543 157.499 17.6 156.032 17.6C154.978 17.6 154.1 17.9513 153.397 18.654C152.715 19.3567 152.374 20.328 152.374 21.568C152.374 22.8287 152.715 23.8207 153.397 24.544C154.1 25.2467 154.978 25.598 156.032 25.598C157.499 25.598 158.615 24.8437 159.38 23.335L163.937 25.66C163.358 27.1067 162.377 28.2433 160.992 29.07C159.607 29.876 157.964 30.279 156.063 30.279ZM183.147 21.63C183.147 21.6713 183.116 22.157 183.054 23.087H170.84C171.088 23.955 171.563 24.6267 172.266 25.102C172.989 25.5567 173.888 25.784 174.963 25.784C175.769 25.784 176.461 25.6703 177.04 25.443C177.639 25.2157 178.239 24.8437 178.838 24.327L181.938 27.551C180.305 29.3697 177.918 30.279 174.777 30.279C172.814 30.279 171.088 29.907 169.6 29.163C168.112 28.419 166.955 27.3857 166.128 26.063C165.322 24.7403 164.919 23.242 164.919 21.568C164.919 19.9147 165.312 18.437 166.097 17.135C166.903 15.8123 168.009 14.779 169.414 14.035C170.819 13.291 172.4 12.919 174.157 12.919C175.831 12.919 177.35 13.2703 178.714 13.973C180.078 14.655 181.153 15.6573 181.938 16.98C182.744 18.282 183.147 19.832 183.147 21.63ZM174.188 17.104C173.279 17.104 172.514 17.3623 171.894 17.879C171.295 18.3957 170.912 19.0983 170.747 19.987H177.629C177.464 19.0983 177.071 18.3957 176.451 17.879C175.852 17.3623 175.097 17.104 174.188 17.104Z" fill="black"/>
<rect x="23" y="10" width="21" height="23" fill="white"/>
<circle cx="33" cy="21" r="9" fill="url(#paint0_linear)"/>
<defs>
<linearGradient id="paint0_linear" x1="33" y1="12" x2="33" y2="30" gradientUnits="userSpaceOnUse">
<stop stopColor="#E218E7"/>
<stop offset="1" stopColor="#ED2A86"/>
</linearGradient>
</defs>
</svg>
