<svg width="181" height="24" viewBox="0 0 181 24" fill="none" xmlns="http://www.w3.org/2000/svg">
<path d="M9.92 1.302C11.8833 1.302 13.5883 1.63267 15.035 2.294C16.4817 2.93467 17.5977 3.86467 18.383 5.084C19.1683 6.28267 19.561 7.69833 19.561 9.331C19.561 10.9637 19.1683 12.3793 18.383 13.578C17.5977 14.7767 16.4817 15.7067 15.035 16.368C13.5883 17.0087 11.8833 17.329 9.92 17.329H6.138V23.002H0V1.302H9.92ZM9.548 12.493C10.8087 12.493 11.7593 12.2243 12.4 11.687C13.0407 11.129 13.361 10.3437 13.361 9.331C13.361 8.31833 13.0407 7.533 12.4 6.975C11.7593 6.417 10.8087 6.138 9.548 6.138H6.138V12.493H9.548Z" fill="white"/>
<path d="M42.8909 0H48.7809V23.002H42.8909V0Z" fill="white"/>
<path d="M60.2347 17.112L58.4987 18.879V23.002H52.6087V0H58.4987V12.059L64.5127 6.2H71.4877L64.5127 13.392L72.0767 23.002H64.9467L60.2347 17.112Z" fill="white"/>
<path d="M80.7189 5.921C83.5089 5.921 85.6376 6.56167 87.1049 7.843C88.5723 9.10367 89.3059 11.0463 89.3059 13.671V23.002H83.8189V20.832C82.9716 22.4647 81.3183 23.281 78.8589 23.281C77.5569 23.281 76.4306 23.0537 75.4799 22.599C74.5293 22.1443 73.8059 21.5347 73.3099 20.77C72.8346 19.9847 72.5969 19.096 72.5969 18.104C72.5969 16.5127 73.2066 15.283 74.4259 14.415C75.6453 13.5263 77.5259 13.082 80.0679 13.082H83.4159C83.3126 11.3047 82.1242 10.416 79.8509 10.416C79.0449 10.416 78.2286 10.5503 77.4019 10.819C76.5753 11.067 75.8726 11.4183 75.2939 11.873L73.3099 7.874C74.2399 7.254 75.3663 6.77867 76.6889 6.448C78.0323 6.09667 79.3756 5.921 80.7189 5.921ZM80.5019 19.561C81.1839 19.561 81.7833 19.3957 82.2999 19.065C82.8166 18.7343 83.1886 18.2487 83.4159 17.608V16.151H80.8739C79.1586 16.151 78.3009 16.7193 78.3009 17.856C78.3009 18.3727 78.4972 18.786 78.8899 19.096C79.2826 19.406 79.8199 19.561 80.5019 19.561Z" fill="white"/>
<path d="M103.223 1.302C105.186 1.302 106.891 1.63267 108.338 2.294C109.784 2.93467 110.9 3.86467 111.686 5.084C112.471 6.28267 112.864 7.69833 112.864 9.331C112.864 10.9637 112.471 12.3793 111.686 13.578C110.9 14.7767 109.784 15.7067 108.338 16.368C106.891 17.0087 105.186 17.329 103.223 17.329H99.4407V23.002H93.3027V1.302H103.223ZM102.851 12.493C104.111 12.493 105.062 12.2243 105.703 11.687C106.343 11.129 106.664 10.3437 106.664 9.331C106.664 8.31833 106.343 7.533 105.703 6.975C105.062 6.417 104.111 6.138 102.851 6.138H99.4407V12.493H102.851Z" fill="white"/>
<path d="M115.88 0H121.77V23.002H115.88V0Z" fill="white"/>
<path d="M132.759 5.921C135.549 5.921 137.678 6.56167 139.145 7.843C140.612 9.10367 141.346 11.0463 141.346 13.671V23.002H135.859V20.832C135.012 22.4647 133.358 23.281 130.899 23.281C129.597 23.281 128.471 23.0537 127.52 22.599C126.569 22.1443 125.846 21.5347 125.35 20.77C124.875 19.9847 124.637 19.096 124.637 18.104C124.637 16.5127 125.247 15.283 126.466 14.415C127.685 13.5263 129.566 13.082 132.108 13.082H135.456C135.353 11.3047 134.164 10.416 131.891 10.416C131.085 10.416 130.269 10.5503 129.442 10.819C128.615 11.067 127.913 11.4183 127.334 11.873L125.35 7.874C126.28 7.254 127.406 6.77867 128.729 6.448C130.072 6.09667 131.416 5.921 132.759 5.921ZM132.542 19.561C133.224 19.561 133.823 19.3957 134.34 19.065C134.857 18.7343 135.229 18.2487 135.456 17.608V16.151H132.914C131.199 16.151 130.341 16.7193 130.341 17.856C130.341 18.3727 130.537 18.786 130.93 19.096C131.323 19.406 131.86 19.561 132.542 19.561Z" fill="white"/>
<path d="M153.893 23.281C152.033 23.281 150.369 22.909 148.902 22.165C147.435 21.421 146.288 20.3877 145.461 19.065C144.655 17.7423 144.252 16.244 144.252 14.57C144.252 12.896 144.655 11.408 145.461 10.106C146.288 8.78333 147.435 7.76033 148.902 7.037C150.369 6.293 152.033 5.921 153.893 5.921C155.794 5.921 157.437 6.33433 158.822 7.161C160.207 7.967 161.188 9.09333 161.767 10.54L157.21 12.865C156.445 11.3563 155.329 10.602 153.862 10.602C152.808 10.602 151.93 10.9533 151.227 11.656C150.545 12.3587 150.204 13.33 150.204 14.57C150.204 15.8307 150.545 16.8227 151.227 17.546C151.93 18.2487 152.808 18.6 153.862 18.6C155.329 18.6 156.445 17.8457 157.21 16.337L161.767 18.662C161.188 20.1087 160.207 21.2453 158.822 22.072C157.437 22.878 155.794 23.281 153.893 23.281Z" fill="white"/>
<path d="M180.977 14.632C180.977 14.6733 180.946 15.159 180.884 16.089H168.67C168.918 16.957 169.393 17.6287 170.096 18.104C170.819 18.5587 171.718 18.786 172.793 18.786C173.599 18.786 174.291 18.6723 174.87 18.445C175.469 18.2177 176.069 17.8457 176.668 17.329L179.768 20.553C178.135 22.3717 175.748 23.281 172.607 23.281C170.644 23.281 168.918 22.909 167.43 22.165C165.942 21.421 164.785 20.3877 163.958 19.065C163.152 17.7423 162.749 16.244 162.749 14.57C162.749 12.9167 163.142 11.439 163.927 10.137C164.733 8.81433 165.839 7.781 167.244 7.037C168.649 6.293 170.23 5.921 171.987 5.921C173.661 5.921 175.18 6.27233 176.544 6.975C177.908 7.657 178.983 8.65933 179.768 9.982C180.574 11.284 180.977 12.834 180.977 14.632ZM172.018 10.106C171.109 10.106 170.344 10.3643 169.724 10.881C169.125 11.3977 168.742 12.1003 168.577 12.989H175.459C175.294 12.1003 174.901 11.3977 174.281 10.881C173.682 10.3643 172.927 10.106 172.018 10.106Z" fill="white"/>
<circle cx="30.83" cy="14.002" r="9" fill="white"/>
</svg>
